<svg id="visual" viewBox="0 0 900 900" width="900" height="900" xmlns="http://www.w3.org/2000/svg" xmlns:xlink="http://www.w3.org/1999/xlink" version="1.1"><path d="M0 272L18.8 261.2C37.7 250.3 75.3 228.7 112.8 238.5C150.3 248.3 187.7 289.7 225.2 289.7C262.7 289.7 300.3 248.3 337.8 220.3C375.3 192.3 412.7 177.7 450.2 200.8C487.7 224 525.3 285 562.8 279.5C600.3 274 637.7 202 675.2 165.2C712.7 128.3 750.3 126.7 787.8 133.5C825.3 140.3 862.7 155.7 881.3 163.3L900 171L900 901L881.3 901C862.7 901 825.3 901 787.8 901C750.3 901 712.7 901 675.2 901C637.7 901 600.3 901 562.8 901C525.3 901 487.7 901 450.2 901C412.7 901 375.3 901 337.8 901C300.3 901 262.7 901 225.2 901C187.7 901 150.3 901 112.8 901C75.3 901 37.7 901 18.8 901L0 901Z" fill="#2487c7"></path><path d="M0 375L18.8 369C37.7 363 75.3 351 112.8 337.2C150.3 323.3 187.7 307.7 225.2 298.2C262.7 288.7 300.3 285.3 337.8 292.2C375.3 299 412.7 316 450.2 319C487.7 322 525.3 311 562.8 298.7C600.3 286.3 637.7 272.7 675.2 278.7C712.7 284.7 750.3 310.3 787.8 319.5C825.3 328.7 862.7 321.3 881.3 317.7L900 314L900 901L881.3 901C862.7 901 825.3 901 787.8 901C750.3 901 712.7 901 675.2 901C637.7 901 600.3 901 562.8 901C525.3 901 487.7 901 450.2 901C412.7 901 375.3 901 337.8 901C300.3 901 262.7 901 225.2 901C187.7 901 150.3 901 112.8 901C75.3 901 37.7 901 18.8 901L0 901Z" fill="#4c95cf"></path><path d="M0 385L18.8 370.7C37.7 356.3 75.3 327.7 112.8 346.2C150.3 364.7 187.7 430.3 225.2 453C262.7 475.7 300.3 455.3 337.8 454.3C375.3 453.3 412.7 471.7 450.2 449.3C487.7 427 525.3 364 562.8 338.8C600.3 313.7 637.7 326.3 675.2 338C712.7 349.7 750.3 360.3 787.8 378.3C825.3 396.3 862.7 421.7 881.3 434.3L900 447L900 901L881.3 901C862.7 901 825.3 901 787.8 901C750.3 901 712.7 901 675.2 901C637.7 901 600.3 901 562.8 901C525.3 901 487.7 901 450.2 901C412.7 901 375.3 901 337.8 901C300.3 901 262.7 901 225.2 901C187.7 901 150.3 901 112.8 901C75.3 901 37.7 901 18.8 901L0 901Z" fill="#68a3d7"></path><path d="M0 538L18.8 513.7C37.7 489.3 75.3 440.7 112.8 422.2C150.3 403.7 187.7 415.3 225.2 435.2C262.7 455 300.3 483 337.8 503.2C375.3 523.3 412.7 535.7 450.2 530C487.7 524.3 525.3 500.7 562.8 479.3C600.3 458 637.7 439 675.2 447C712.7 455 750.3 490 787.8 487.7C825.3 485.3 862.7 445.7 881.3 425.8L900 406L900 901L881.3 901C862.7 901 825.3 901 787.8 901C750.3 901 712.7 901 675.2 901C637.7 901 600.3 901 562.8 901C525.3 901 487.7 901 450.2 901C412.7 901 375.3 901 337.8 901C300.3 901 262.7 901 225.2 901C187.7 901 150.3 901 112.8 901C75.3 901 37.7 901 18.8 901L0 901Z" fill="#81b1df"></path><path d="M0 495L18.8 506.2C37.7 517.3 75.3 539.7 112.8 560.7C150.3 581.7 187.7 601.3 225.2 613.3C262.7 625.3 300.3 629.7 337.8 632.7C375.3 635.7 412.7 637.3 450.2 618.3C487.7 599.3 525.3 559.7 562.8 537.8C600.3 516 637.7 512 675.2 522.7C712.7 533.3 750.3 558.7 787.8 574.7C825.3 590.7 862.7 597.3 881.3 600.7L900 604L900 901L881.3 901C862.7 901 825.3 901 787.8 901C750.3 901 712.7 901 675.2 901C637.7 901 600.3 901 562.8 901C525.3 901 487.7 901 450.2 901C412.7 901 375.3 901 337.8 901C300.3 901 262.7 901 225.2 901C187.7 901 150.3 901 112.8 901C75.3 901 37.7 901 18.8 901L0 901Z" fill="#98bfe7"></path><path d="M0 608L18.8 618.7C37.7 629.3 75.3 650.7 112.8 645.2C150.3 639.7 187.7 607.3 225.2 594.3C262.7 581.3 300.3 587.7 337.8 593.2C375.3 598.7 412.7 603.3 450.2 609C487.7 614.7 525.3 621.3 562.8 619.3C600.3 617.3 637.7 606.7 675.2 602.3C712.7 598 750.3 600 787.8 605.8C825.3 611.7 862.7 621.3 881.3 626.2L900 631L900 901L881.3 901C862.7 901 825.3 901 787.8 901C750.3 901 712.7 901 675.2 901C637.7 901 600.3 901 562.8 901C525.3 901 487.7 901 450.2 901C412.7 901 375.3 901 337.8 901C300.3 901 262.7 901 225.2 901C187.7 901 150.3 901 112.8 901C75.3 901 37.7 901 18.8 901L0 901Z" fill="#afceef"></path><path d="M0 752L18.8 755.5C37.7 759 75.3 766 112.8 761C150.3 756 187.7 739 225.2 730.3C262.7 721.7 300.3 721.3 337.8 728.2C375.3 735 412.7 749 450.2 753.3C487.7 757.7 525.3 752.3 562.8 736.5C600.3 720.7 637.7 694.3 675.2 685.8C712.7 677.3 750.3 686.7 787.8 688.5C825.3 690.3 862.7 684.7 881.3 681.8L900 679L900 901L881.3 901C862.7 901 825.3 901 787.8 901C750.3 901 712.7 901 675.2 901C637.7 901 600.3 901 562.8 901C525.3 901 487.7 901 450.2 901C412.7 901 375.3 901 337.8 901C300.3 901 262.7 901 225.2 901C187.7 901 150.3 901 112.8 901C75.3 901 37.7 901 18.8 901L0 901Z" fill="#c5dcf7"></path><path d="M0 808L18.8 804.5C37.7 801 75.3 794 112.8 786.5C150.3 779 187.7 771 225.2 778.5C262.7 786 300.3 809 337.8 820.7C375.3 832.3 412.7 832.7 450.2 825C487.7 817.3 525.3 801.7 562.8 797.7C600.3 793.7 637.7 801.3 675.2 797.3C712.7 793.3 750.3 777.7 787.8 782.3C825.3 787 862.7 812 881.3 824.5L900 837L900 901L881.3 901C862.7 901 825.3 901 787.8 901C750.3 901 712.7 901 675.2 901C637.7 901 600.3 901 562.8 901C525.3 901 487.7 901 450.2 901C412.7 901 375.3 901 337.8 901C300.3 901 262.7 901 225.2 901C187.7 901 150.3 901 112.8 901C75.3 901 37.7 901 18.8 901L0 901Z" fill="#daebff"></path></svg>