<svg id="visual" viewBox="0 0 900 100" width="900" height="100" xmlns="http://www.w3.org/2000/svg" xmlns:xlink="http://www.w3.org/1999/xlink" version="1.1"><path d="M0 35L7.2 33.7C14.3 32.3 28.7 29.7 43 26.2C57.3 22.7 71.7 18.3 86 20.2C100.3 22 114.7 30 128.8 33.3C143 36.7 157 35.3 171.2 33.2C185.3 31 199.7 28 214 24.5C228.3 21 242.7 17 257 16.7C271.3 16.3 285.7 19.7 300 24.3C314.3 29 328.7 35 343 33.8C357.3 32.7 371.7 24.3 386 23.2C400.3 22 414.7 28 428.8 29.7C443 31.3 457 28.7 471.2 30.2C485.3 31.7 499.7 37.3 514 38.8C528.3 40.3 542.7 37.7 557 32.7C571.3 27.7 585.7 20.3 600 15.8C614.3 11.3 628.7 9.7 643 9C657.3 8.3 671.7 8.7 686 13.2C700.3 17.7 714.7 26.3 728.8 29C743 31.7 757 28.3 771.2 29.7C785.3 31 799.7 37 814 40.2C828.3 43.3 842.7 43.7 857 38C871.3 32.3 885.7 20.7 892.8 14.8L900 9L900 101L892.8 101C885.7 101 871.3 101 857 101C842.7 101 828.3 101 814 101C799.7 101 785.3 101 771.2 101C757 101 743 101 728.8 101C714.7 101 700.3 101 686 101C671.7 101 657.3 101 643 101C628.7 101 614.3 101 600 101C585.7 101 571.3 101 557 101C542.7 101 528.3 101 514 101C499.7 101 485.3 101 471.2 101C457 101 443 101 428.8 101C414.7 101 400.3 101 386 101C371.7 101 357.3 101 343 101C328.7 101 314.3 101 300 101C285.7 101 271.3 101 257 101C242.7 101 228.3 101 214 101C199.7 101 185.3 101 171.2 101C157 101 143 101 128.8 101C114.7 101 100.3 101 86 101C71.7 101 57.3 101 43 101C28.7 101 14.3 101 7.2 101L0 101Z" fill="#2487c7"></path><path d="M0 45L7.2 43.3C14.3 41.7 28.7 38.3 43 36.3C57.3 34.3 71.7 33.7 86 35.3C100.3 37 114.7 41 128.8 41.8C143 42.7 157 40.3 171.2 39.8C185.3 39.3 199.7 40.7 214 41C228.3 41.3 242.7 40.7 257 39.7C271.3 38.7 285.7 37.3 300 34.7C314.3 32 328.7 28 343 28.5C357.3 29 371.7 34 386 38.5C400.3 43 414.7 47 428.8 45.5C443 44 457 37 471.2 32.5C485.3 28 499.7 26 514 25.2C528.3 24.3 542.7 24.7 557 28.2C571.3 31.7 585.7 38.3 600 39.2C614.3 40 628.7 35 643 33C657.3 31 671.7 32 686 34.7C700.3 37.3 714.7 41.7 728.8 40.3C743 39 757 32 771.2 30.2C785.3 28.3 799.7 31.7 814 34.3C828.3 37 842.7 39 857 39.5C871.3 40 885.7 39 892.8 38.5L900 38L900 101L892.8 101C885.7 101 871.3 101 857 101C842.7 101 828.3 101 814 101C799.7 101 785.3 101 771.2 101C757 101 743 101 728.8 101C714.7 101 700.3 101 686 101C671.7 101 657.3 101 643 101C628.7 101 614.3 101 600 101C585.7 101 571.3 101 557 101C542.7 101 528.3 101 514 101C499.7 101 485.3 101 471.2 101C457 101 443 101 428.8 101C414.7 101 400.3 101 386 101C371.7 101 357.3 101 343 101C328.7 101 314.3 101 300 101C285.7 101 271.3 101 257 101C242.7 101 228.3 101 214 101C199.7 101 185.3 101 171.2 101C157 101 143 101 128.8 101C114.7 101 100.3 101 86 101C71.7 101 57.3 101 43 101C28.7 101 14.3 101 7.2 101L0 101Z" fill="#4c95cf"></path><path d="M0 43L7.2 40.7C14.3 38.3 28.7 33.7 43 32.7C57.3 31.7 71.7 34.3 86 38.5C100.3 42.7 114.7 48.3 128.8 48.3C143 48.3 157 42.7 171.2 43.2C185.3 43.7 199.7 50.3 214 53.5C228.3 56.7 242.7 56.3 257 54.7C271.3 53 285.7 50 300 49.5C314.3 49 328.7 51 343 52.3C357.3 53.7 371.7 54.3 386 54.7C400.3 55 414.7 55 428.8 55.5C443 56 457 57 471.2 56.8C485.3 56.7 499.7 55.3 514 51.3C528.3 47.3 542.7 40.7 557 37.8C571.3 35 585.7 36 600 36.8C614.3 37.7 628.7 38.3 643 40C657.3 41.7 671.7 44.3 686 46.7C700.3 49 714.7 51 728.8 49.2C743 47.3 757 41.7 771.2 38.3C785.3 35 799.7 34 814 34C828.3 34 842.7 35 857 36.7C871.3 38.3 885.7 40.7 892.8 41.8L900 43L900 101L892.8 101C885.7 101 871.3 101 857 101C842.7 101 828.3 101 814 101C799.7 101 785.3 101 771.2 101C757 101 743 101 728.8 101C714.7 101 700.3 101 686 101C671.7 101 657.3 101 643 101C628.7 101 614.3 101 600 101C585.7 101 571.3 101 557 101C542.7 101 528.3 101 514 101C499.7 101 485.3 101 471.2 101C457 101 443 101 428.8 101C414.7 101 400.3 101 386 101C371.7 101 357.3 101 343 101C328.7 101 314.3 101 300 101C285.7 101 271.3 101 257 101C242.7 101 228.3 101 214 101C199.7 101 185.3 101 171.2 101C157 101 143 101 128.8 101C114.7 101 100.3 101 86 101C71.7 101 57.3 101 43 101C28.7 101 14.3 101 7.2 101L0 101Z" fill="#68a3d7"></path><path d="M0 52L7.2 50C14.3 48 28.7 44 43 46.2C57.3 48.3 71.7 56.7 86 57.2C100.3 57.7 114.7 50.3 128.8 46.5C143 42.7 157 42.3 171.2 43C185.3 43.7 199.7 45.3 214 49.2C228.3 53 242.7 59 257 62.2C271.3 65.3 285.7 65.7 300 62.8C314.3 60 328.7 54 343 50.7C357.3 47.3 371.7 46.7 386 45.3C400.3 44 414.7 42 428.8 42.5C443 43 457 46 471.2 49C485.3 52 499.7 55 514 53.7C528.3 52.3 542.7 46.7 557 48C571.3 49.3 585.7 57.7 600 60.2C614.3 62.7 628.7 59.3 643 56.5C657.3 53.7 671.7 51.3 686 51.5C700.3 51.7 714.7 54.3 728.8 55.7C743 57 757 57 771.2 54.5C785.3 52 799.7 47 814 45C828.3 43 842.7 44 857 46.5C871.3 49 885.7 53 892.8 55L900 57L900 101L892.8 101C885.7 101 871.3 101 857 101C842.7 101 828.3 101 814 101C799.7 101 785.3 101 771.2 101C757 101 743 101 728.8 101C714.7 101 700.3 101 686 101C671.7 101 657.3 101 643 101C628.7 101 614.3 101 600 101C585.7 101 571.3 101 557 101C542.7 101 528.3 101 514 101C499.7 101 485.3 101 471.2 101C457 101 443 101 428.8 101C414.7 101 400.3 101 386 101C371.7 101 357.3 101 343 101C328.7 101 314.3 101 300 101C285.7 101 271.3 101 257 101C242.7 101 228.3 101 214 101C199.7 101 185.3 101 171.2 101C157 101 143 101 128.8 101C114.7 101 100.3 101 86 101C71.7 101 57.3 101 43 101C28.7 101 14.3 101 7.2 101L0 101Z" fill="#81b1df"></path><path d="M0 65L7.2 63.2C14.3 61.3 28.7 57.7 43 57C57.3 56.3 71.7 58.7 86 60.3C100.3 62 114.7 63 128.8 61.7C143 60.3 157 56.7 171.2 56.3C185.3 56 199.7 59 214 59.2C228.3 59.3 242.7 56.7 257 56.5C271.3 56.3 285.7 58.7 300 61.5C314.3 64.3 328.7 67.7 343 66.8C357.3 66 371.7 61 386 61.2C400.3 61.3 414.7 66.7 428.8 66.2C443 65.7 457 59.3 471.2 59C485.3 58.7 499.7 64.3 514 66.8C528.3 69.3 542.7 68.7 557 69C571.3 69.3 585.7 70.7 600 67.7C614.3 64.7 628.7 57.3 643 57.3C657.3 57.3 671.7 64.7 686 68C700.3 71.3 714.7 70.7 728.8 69C743 67.3 757 64.7 771.2 61.8C785.3 59 799.7 56 814 54.2C828.3 52.3 842.7 51.7 857 53.8C871.3 56 885.7 61 892.8 63.5L900 66L900 101L892.8 101C885.7 101 871.3 101 857 101C842.7 101 828.3 101 814 101C799.7 101 785.3 101 771.2 101C757 101 743 101 728.8 101C714.7 101 700.3 101 686 101C671.7 101 657.3 101 643 101C628.7 101 614.3 101 600 101C585.7 101 571.3 101 557 101C542.7 101 528.3 101 514 101C499.7 101 485.3 101 471.2 101C457 101 443 101 428.8 101C414.7 101 400.3 101 386 101C371.7 101 357.3 101 343 101C328.7 101 314.3 101 300 101C285.7 101 271.3 101 257 101C242.7 101 228.3 101 214 101C199.7 101 185.3 101 171.2 101C157 101 143 101 128.8 101C114.7 101 100.3 101 86 101C71.7 101 57.3 101 43 101C28.7 101 14.3 101 7.2 101L0 101Z" fill="#98bfe7"></path><path d="M0 76L7.2 73.8C14.3 71.7 28.7 67.3 43 66C57.3 64.7 71.7 66.3 86 67.2C100.3 68 114.7 68 128.8 66.7C143 65.3 157 62.7 171.2 62.2C185.3 61.7 199.7 63.3 214 63.3C228.3 63.3 242.7 61.7 257 64.2C271.3 66.7 285.7 73.3 300 76.3C314.3 79.3 328.7 78.7 343 75.5C357.3 72.3 371.7 66.7 386 63.7C400.3 60.7 414.7 60.3 428.8 60.8C443 61.3 457 62.7 471.2 63.7C485.3 64.7 499.7 65.3 514 64.8C528.3 64.3 542.7 62.7 557 62.2C571.3 61.7 585.7 62.3 600 62.3C614.3 62.3 628.7 61.7 643 62.3C657.3 63 671.7 65 686 66.7C700.3 68.3 714.7 69.7 728.8 71C743 72.3 757 73.7 771.2 73.3C785.3 73 799.7 71 814 70.8C828.3 70.7 842.7 72.3 857 71.3C871.3 70.3 885.7 66.7 892.8 64.8L900 63L900 101L892.8 101C885.7 101 871.3 101 857 101C842.7 101 828.3 101 814 101C799.7 101 785.3 101 771.2 101C757 101 743 101 728.8 101C714.7 101 700.3 101 686 101C671.7 101 657.3 101 643 101C628.7 101 614.3 101 600 101C585.7 101 571.3 101 557 101C542.7 101 528.3 101 514 101C499.7 101 485.3 101 471.2 101C457 101 443 101 428.8 101C414.7 101 400.3 101 386 101C371.7 101 357.3 101 343 101C328.7 101 314.3 101 300 101C285.7 101 271.3 101 257 101C242.7 101 228.3 101 214 101C199.7 101 185.3 101 171.2 101C157 101 143 101 128.8 101C114.7 101 100.3 101 86 101C71.7 101 57.3 101 43 101C28.7 101 14.3 101 7.2 101L0 101Z" fill="#afceef"></path><path d="M0 85L7.2 84.8C14.3 84.7 28.7 84.3 43 84.3C57.3 84.3 71.7 84.7 86 85.3C100.3 86 114.7 87 128.8 85C143 83 157 78 171.2 78C185.3 78 199.7 83 214 83.5C228.3 84 242.7 80 257 78.3C271.3 76.7 285.7 77.3 300 77.5C314.3 77.7 328.7 77.3 343 77.8C357.3 78.3 371.7 79.7 386 79.8C400.3 80 414.7 79 428.8 78.3C443 77.7 457 77.3 471.2 78.3C485.3 79.3 499.7 81.7 514 81.3C528.3 81 542.7 78 557 77.3C571.3 76.7 585.7 78.3 600 80.5C614.3 82.7 628.7 85.3 643 84.7C657.3 84 671.7 80 686 77.2C700.3 74.3 714.7 72.7 728.8 73.5C743 74.3 757 77.7 771.2 79.7C785.3 81.7 799.7 82.3 814 82.7C828.3 83 842.7 83 857 81.3C871.3 79.7 885.7 76.3 892.8 74.7L900 73L900 101L892.8 101C885.7 101 871.3 101 857 101C842.7 101 828.3 101 814 101C799.7 101 785.3 101 771.2 101C757 101 743 101 728.8 101C714.7 101 700.3 101 686 101C671.7 101 657.3 101 643 101C628.7 101 614.3 101 600 101C585.7 101 571.3 101 557 101C542.7 101 528.3 101 514 101C499.7 101 485.3 101 471.2 101C457 101 443 101 428.8 101C414.7 101 400.3 101 386 101C371.7 101 357.3 101 343 101C328.7 101 314.3 101 300 101C285.7 101 271.3 101 257 101C242.7 101 228.3 101 214 101C199.7 101 185.3 101 171.2 101C157 101 143 101 128.8 101C114.7 101 100.3 101 86 101C71.7 101 57.3 101 43 101C28.7 101 14.3 101 7.2 101L0 101Z" fill="#c5dcf7"></path><path d="M0 90L7.2 89C14.3 88 28.7 86 43 84.5C57.3 83 71.7 82 86 81.3C100.3 80.7 114.7 80.3 128.8 82C143 83.7 157 87.3 171.2 87.5C185.3 87.7 199.7 84.3 214 84.5C228.3 84.7 242.7 88.3 257 88.7C271.3 89 285.7 86 300 86C314.3 86 328.7 89 343 88.5C357.3 88 371.7 84 386 82.7C400.3 81.3 414.7 82.7 428.8 85.2C443 87.7 457 91.3 471.2 91.8C485.3 92.3 499.7 89.7 514 89.2C528.3 88.7 542.7 90.3 557 90.3C571.3 90.3 585.7 88.7 600 86.7C614.3 84.7 628.7 82.3 643 82.8C657.3 83.3 671.7 86.7 686 88.5C700.3 90.3 714.7 90.7 728.8 91.3C743 92 757 93 771.2 92.7C785.3 92.3 799.7 90.7 814 88.8C828.3 87 842.7 85 857 84.2C871.3 83.3 885.7 83.7 892.8 83.8L900 84L900 101L892.8 101C885.7 101 871.3 101 857 101C842.7 101 828.3 101 814 101C799.7 101 785.3 101 771.2 101C757 101 743 101 728.8 101C714.7 101 700.3 101 686 101C671.7 101 657.3 101 643 101C628.7 101 614.3 101 600 101C585.7 101 571.3 101 557 101C542.7 101 528.3 101 514 101C499.7 101 485.3 101 471.2 101C457 101 443 101 428.8 101C414.7 101 400.3 101 386 101C371.7 101 357.3 101 343 101C328.7 101 314.3 101 300 101C285.7 101 271.3 101 257 101C242.7 101 228.3 101 214 101C199.7 101 185.3 101 171.2 101C157 101 143 101 128.8 101C114.7 101 100.3 101 86 101C71.7 101 57.3 101 43 101C28.7 101 14.3 101 7.2 101L0 101Z" fill="#daebff"></path></svg>